<svg xmlns="http://www.w3.org/2000/svg" viewBox="0 0 262.09 262.09"><defs><style>.cls-1{fill:none;stroke:#fff;stroke-miterlimit:10;stroke-width:3px;}.cls-2{fill:#fff;}</style></defs><title>Asset 17</title><g id="Layer_2" data-name="Layer 2"><g id="Layer_2-2" data-name="Layer 2"><rect class="cls-1" x="37.35" y="37.35" width="187.38" height="187.38" rx="7.13" transform="translate(131.05 -54.28) rotate(45)"/><path class="cls-2" d="M182.14,86.93H170.65A2,2,0,0,0,168.56,89v3.76h-7.95V89a2,2,0,0,0-2.09-2.09H147A2,2,0,0,0,144.93,89v3.76H137V89a2,2,0,0,0-2.09-2.09h-3.56V80.24h3.77a2,2,0,0,0,2.09-2.09V66.65a2,2,0,0,0-2.09-2.09h-11.5a2,2,0,0,0-2.09,2.09v11.5a2,2,0,0,0,2.09,2.09h3.55v6.69H123.4A2,2,0,0,0,121.31,89v3.76h-7.94V89a2,2,0,0,0-2.1-2.09H100A2,2,0,0,0,97.9,89v3.76H90V89a2,2,0,0,0-2.09-2.09H76.36A2,2,0,0,0,74.27,89v11.5a2,2,0,0,0,2.09,2.09h11.5A2,2,0,0,0,90,100.52V96.75h8v3.77a2,2,0,0,0,2.09,2.09h11.49a2,2,0,0,0,2.09-2.09V96.75h8v3.77a2,2,0,0,0,2.09,2.09h3.55v6.69H123.4a2,2,0,0,0-2.09,2.09v11.5A2,2,0,0,0,123.4,125h1l-14.64,15.47a1.87,1.87,0,0,0-.63,1.46v10h-3.76a2,2,0,0,0-2.09,2.09v11.5a2,2,0,0,0,2.09,2.09h3.76v15h-3.76a2,2,0,0,0-2.09,2.1v11.49a2,2,0,0,0,2.09,2.09h11.5a2,2,0,0,0,2.09-2.09V184.77a2,2,0,0,0-2.09-2.1h-3.76v-15h3.76a2,2,0,0,0,2.09-2.09V154a2,2,0,0,0-2.09-2.09h-3.76v-9.19l15.68-16.52,15.67,16.52v9.19h-3.76a2,2,0,0,0-2.09,2.09v11.5a2,2,0,0,0,2.09,2.09h3.76v15h-3.76a2,2,0,0,0-2.09,2.1v11.49a2,2,0,0,0,2.09,2.09h11.5a2,2,0,0,0,2.09-2.09V184.77a2,2,0,0,0-2.09-2.1h-3.76v-15h3.76a2,2,0,0,0,2.09-2.09V154a2,2,0,0,0-2.09-2.09h-3.76v-10a1.87,1.87,0,0,0-.63-1.46L133.23,125h1a2,2,0,0,0,2.09-2.09v-11.5a2,2,0,0,0-2.09-2.09h-2.93v-6.69h3.77a2,2,0,0,0,2.09-2.09V96.75h7.94v3.77a2,2,0,0,0,2.09,2.09h11.29a2,2,0,0,0,2.09-2.09V96.75h7.95v3.77a2,2,0,0,0,2.09,2.09h11.49a2,2,0,0,0,2.09-2.09V89A2.09,2.09,0,0,0,182.14,86.93ZM125.49,68.74h7.32v7.32h-7.32ZM85.77,98.43H78.45V91.11h7.32Zm23.62,0h-7.31V91.11h7.31ZM115,194.17h-7.32v-7.31H115Zm0-30.73h-7.32v-7.31H115Zm35.75,30.73h-7.32v-7.31h7.32Zm0-30.73h-7.32v-7.31h7.32ZM133,120.8H125.7v-7.32H133Zm0-22.37H125.7V91.11H133Zm23.41,0h-7.32V91.11h7.32Zm23.62,0h-7.31V91.11h7.31Z"/></g></g></svg>