<svg xmlns="http://www.w3.org/2000/svg" viewBox="0 0 49.53 43.21"><defs><style>.cls-1{fill:#fff;}</style></defs><title>Asset 12</title><g id="Layer_2" data-name="Layer 2"><g id="Layer_2-2" data-name="Layer 2"><path class="cls-1" d="M1.07,43.21a1.08,1.08,0,0,1-.94-.55,1.11,1.11,0,0,1,0-1.09l7.9-12.64a1.08,1.08,0,0,1,.91-.5h6.32a1.08,1.08,0,0,1,0,2.15H9.57L3,41.07H46.52L40,30.58H34.24a1.08,1.08,0,0,1,0-2.15h6.32a1.07,1.07,0,0,1,.91.51l7.9,12.63a1.07,1.07,0,0,1-.91,1.64Zm23.7-6.31a1,1,0,0,1-.91-.51c-1.15-1.82-11.22-18-11.22-24.26a12.13,12.13,0,0,1,24.26,0c0,5.08-7.06,17.64-11.22,24.26A1.07,1.07,0,0,1,24.77,36.9Zm0-34.75a10,10,0,0,0-10,10c0,4.68,7.31,17.2,9.55,20.93l.44.72.43-.72c2.24-3.73,9.55-16.25,9.55-20.93A10,10,0,0,0,24.77,2.15Zm0,15.79a5.81,5.81,0,1,1,5.81-5.81A5.82,5.82,0,0,1,24.77,17.94Zm0-9.47a3.66,3.66,0,1,0,3.66,3.66A3.67,3.67,0,0,0,24.77,8.47Z"/></g></g></svg>