<svg xmlns="http://www.w3.org/2000/svg" viewBox="0 0 262.09 262.09"><defs><style>.cls-1{fill:none;stroke:#fff;stroke-miterlimit:10;stroke-width:3px;}.cls-2{fill:#fff;}</style></defs><title>Asset 6</title><g id="Layer_2" data-name="Layer 2"><g id="Layer_2-2" data-name="Layer 2"><rect class="cls-1" x="37.35" y="37.35" width="187.38" height="187.38" rx="7.13" transform="translate(131.05 -54.28) rotate(45)"/><path class="cls-2" d="M177,131.69h-.13a2.89,2.89,0,0,1-2.76-3,8.21,8.21,0,0,0-1.41-5c-2.68-4.09,0-7.69,1.55-9.84.31-.42.61-.82.87-1.23C178,108,180.27,100.31,179,94.45a9.15,9.15,0,0,0-4-6c-3.64-2.3-8.74-1.22-10.76-.65a18.1,18.1,0,0,0-5.83,3.39,27.9,27.9,0,0,1-5.77,3.66,20.4,20.4,0,0,1-4.86,1.43c-.84,5-3.93,10.79-9.69,11.87a3.25,3.25,0,0,1-.54,0H135a3.13,3.13,0,0,1-.53,0c-5.79-1.09-8.89-7-9.71-12a23.93,23.93,0,0,1-4.85-1.61A28.48,28.48,0,0,1,114.14,91a18.8,18.8,0,0,0-5.87-3.35c-2-.56-7-1.62-10.75.72a9.15,9.15,0,0,0-4,6c-1.31,5.86,1,13.58,3.9,18.17.27.41.58.83.89,1.25,1.59,2.15,4.25,5.74,1.58,9.82a8.14,8.14,0,0,0-1.39,5,2.89,2.89,0,1,1-5.77.29,13.88,13.88,0,0,1,2.32-8.46c.36-.55.22-1.06-1.38-3.22-.38-.51-.77-1-1.12-1.58-3.46-5.43-6.4-14.8-4.66-22.54a14.91,14.91,0,0,1,6.53-9.66c4-2.52,9.59-3,15.4-1.38a23.46,23.46,0,0,1,7.74,4.27,25.26,25.26,0,0,0,4.6,3,14.57,14.57,0,0,0,5.06,1.48h.13a2.83,2.83,0,0,1,2,.75,2.7,2.7,0,0,1,.86,2c0,3.18,1.78,8,5,8.8h2c3.21-.82,5-5.66,5-8.84a2.87,2.87,0,0,1,.86-2,3.05,3.05,0,0,1,2.07-.81,12.93,12.93,0,0,0,5.16-1.15,23.3,23.3,0,0,0,4.59-3,22.93,22.93,0,0,1,7.75-4.35c3.44-1,10-2.09,15.42,1.32a15,15,0,0,1,6.54,9.66c1.72,7.73-1.21,17.09-4.66,22.51-.32.51-.7,1-1.08,1.55-1.6,2.17-1.74,2.69-1.37,3.25a14,14,0,0,1,2.34,8.42A2.89,2.89,0,0,1,177,131.69Z"/><path class="cls-2" d="M171.75,142.19a2.88,2.88,0,0,0-3.94,1.06c-4.15,7.28-8.13,12.09-14,12.09h-.11c-2.4,0-5.12-1.09-7.75-2.17-1.17-.49-2.39-.94-3.58-1.34-.26-.09-.53-.17-.79-.27-2.06-.76-3.61-1.83-5.91-1.79a5.76,5.76,0,0,0-1.39.2,10.5,10.5,0,0,0-3.19,1c-.34.15-.68.32-1,.43-1.31.45-2.63,1.06-3.91,1.61-2.53,1.1-5.15,2.33-7.43,2.33h-.15c-7.1,0-10.21-5.6-13.8-12l-.21-.43a2.88,2.88,0,0,0-3.93-1.1,2.91,2.91,0,0,0-1.11,3.95l.21.39c3.92,7,8.35,15,18.83,15h.22c3.45,0,6.75-1.53,9.67-2.79,1.23-.54,2.39-1.1,3.47-1.47.54-.18,1.05-.41,1.49-.6a6.06,6.06,0,0,1,1.47-.53,2.67,2.67,0,0,0,.64-.07,14.58,14.58,0,0,1,4,1.32c.31.11.62.18.94.29,1,.35,2.1.77,3.24,1.24,3,1.23,6.38,2.61,9.89,2.61h.17c10.45,0,16-9.74,19-15A2.85,2.85,0,0,0,171.75,142.19Z"/><path class="cls-2" d="M111.92,183.1a2.89,2.89,0,0,1-2.59-1.6c-.23-.46-5.45-10.72-1.77-26.12a2.89,2.89,0,1,1,5.62,1.34c-3.2,13.39,1.28,22.12,1.33,22.21a2.9,2.9,0,0,1-1.31,3.87A2.79,2.79,0,0,1,111.92,183.1Z"/><path class="cls-2" d="M117,153.27a8,8,0,1,1,0-16c4.15,0,10.44,3.22,10.44,8.07S121.17,153.27,117,153.27Zm0-10.19a2.21,2.21,0,1,0,0,4.42c1.76,0,4.27-1.37,4.64-2.14C121.3,144.56,118.76,143.08,117,143.08Z"/><path class="cls-2" d="M90.4,183.1a2.88,2.88,0,0,1-2.87-2.65l-1.87-22.6c-7.81-6.12-9-12.59-7.37-16.72,1.5-3.86,5.39-6.16,10.48-6.35.36-2.52,1.3-5.63,3.41-7.43,1.24-1.06,3.95-2.55,8-.56,3.4,1.66,7.28,5.53,8.14,9.74a8,8,0,0,1-1.83,7.07l-5.39,6.08L103,180a2.89,2.89,0,1,1-5.76.36l-2-31.55a2.89,2.89,0,0,1,.72-2.1l6.16-6.94a2.28,2.28,0,0,0,.52-2.11c-.44-2.17-3-4.7-5-5.7-.37-.18-1.28-.58-1.68-.31-1.12.74-1.7,4.23-1.68,5.67a2.76,2.76,0,0,1,0,.76,2.9,2.9,0,0,1-3.2,2.54c-3.81-.45-6.67.54-7.46,2.57-.92,2.37.72,6.62,6.44,10.76a2.88,2.88,0,0,1,1.19,2.1l2,23.9a2.87,2.87,0,0,1-2.64,3.11Zm1.41-48.19a2.88,2.88,0,0,1,2.47,2.17A2.87,2.87,0,0,0,91.81,134.91Z"/><path class="cls-2" d="M154.68,153.27c-4.16,0-10.44-3.15-10.44-7.9s6.28-8.07,10.44-8.07a8,8,0,1,1,0,16ZM150,145.36c.37.77,2.88,2.14,4.64,2.14a2.21,2.21,0,0,0,0-4.42C152.94,143.08,150.4,144.56,150,145.36Z"/><path class="cls-2" d="M135.94,143.4h0c-2.81,0-5-1.39-8.38-3.66l-2.18-1.47c-3.94-2.62-8-5.33-11.28-9.4-6-7.42-3.11-13.78-.7-16.19a7.44,7.44,0,0,1,5.24-2.47c1.75,0,4.32.76,6.6,4.39,1.55,2.47,6.27,10,10.39,10h1.06c4.11,0,8.83-7.52,10.38-10,2.35-3.75,5-4.53,6.8-4.53a7.35,7.35,0,0,1,5,2.2c2.4,2.44,5.31,9-.68,16.41-4,5-9.22,8.3-14.28,11.53l-.52.33a18.12,18.12,0,0,1-5.38,2.59A8.5,8.5,0,0,1,135.94,143.4ZM118.64,116a1.77,1.77,0,0,0-1,.57,1.09,1.09,0,0,1-.18.19c-.49.52-2.92,3.51,1.1,8.51,2.71,3.37,6.24,5.72,10,8.21l2.24,1.5c2.69,1.84,4.07,2.66,5.12,2.66h0a2.69,2.69,0,0,0,.71-.1,13.43,13.43,0,0,0,3.65-1.85l.52-.33c4.88-3.11,9.49-6.06,12.88-10.28,4.06-5,1.58-8.19,1-8.77a1.62,1.62,0,0,0-.87-.45c-.35,0-1.06.48-1.9,1.83-3.71,5.91-8.8,12.68-15.28,12.68h-1.06c-6.49,0-11.57-6.77-15.28-12.68C119.51,116.33,118.86,116,118.64,116Z"/><path class="cls-2" d="M182.08,183.1h-.24a2.89,2.89,0,0,1-2.65-3.11l2-23.9a2.88,2.88,0,0,1,1.19-2.1c5.72-4.14,7.36-8.46,6.44-10.82-.79-2-3.64-2.92-7.47-2.65h0a2.78,2.78,0,0,1-3.2-2.47,2.54,2.54,0,0,1,0-.73c0-1.44-.56-4.91-1.68-5.65-.41-.26-1.31.14-1.68.32-2.06,1-4.57,3.54-5,5.71a2.29,2.29,0,0,0,.54,2.13l6.14,6.92a2.89,2.89,0,0,1,.72,2.1l-2,31.55a2.89,2.89,0,1,1-5.76-.36l1.88-30.35L166,143.63a8,8,0,0,1-1.86-7.09c.86-4.22,4.74-8.09,8.13-9.75,4.1-2,6.81-.5,8.06.56,2.1,1.8,3.05,4.91,3.4,7.43,5.09.19,9,2.49,10.48,6.35,1.6,4.13.44,10.6-7.37,16.72L185,180.45A2.88,2.88,0,0,1,182.08,183.1Zm-3.65-46.64a3,3,0,0,0-.25.69A3,3,0,0,1,178.43,136.46Z"/><path class="cls-2" d="M127.38,96.05h-.22a2.9,2.9,0,0,1-2.67-3.1L126,72.35a2.89,2.89,0,1,1,5.76.43l-1.55,20.6A2.88,2.88,0,0,1,127.38,96.05Z"/><path class="cls-2" d="M145.14,96.05a2.88,2.88,0,0,1-2.86-2.53l-2.53-20.6a2.89,2.89,0,0,1,5.74-.71L148,92.81A2.88,2.88,0,0,1,145.5,96,2.17,2.17,0,0,1,145.14,96.05Z"/><path class="cls-2" d="M80.26,108.71a2.88,2.88,0,0,1-2-.84l-6.32-6.32A2.89,2.89,0,1,1,76,97.46l6.32,6.32a2.89,2.89,0,0,1-2,4.93Z"/><path class="cls-2" d="M73.94,134.74a2.85,2.85,0,0,1-2-.85,2.88,2.88,0,0,1,0-4.08l6.32-6.32a2.89,2.89,0,0,1,4.08,4.09L76,133.89A2.85,2.85,0,0,1,73.94,134.74Z"/><path class="cls-2" d="M80.07,118.82H66.59a2.88,2.88,0,1,1,0-5.76H80.07a2.88,2.88,0,1,1,0,5.76Z"/></g></g></svg>