<svg xmlns="http://www.w3.org/2000/svg" viewBox="0 0 40.48 40.48"><defs><style>.cls-1{fill:#fff;}</style></defs><title>Asset 13</title><g id="Layer_2" data-name="Layer 2"><g id="Layer_2-2" data-name="Layer 2"><path class="cls-1" d="M20.24,3.65c5.4,0,6,0,8.18.12,5.48.25,8,2.85,8.3,8.29.09,2.14.11,2.78.11,8.18s0,6.05-.11,8.18c-.26,5.44-2.81,8-8.3,8.3-2.14.09-2.77.11-8.18.11s-6,0-8.18-.11c-5.5-.26-8-2.87-8.3-8.3-.09-2.14-.11-2.77-.11-8.18s0-6,.11-8.18c.26-5.44,2.81-8,8.3-8.3C14.2,3.67,14.84,3.65,20.24,3.65Zm0-3.65c-5.5,0-6.19,0-8.34.12C4.55.46.46,4.54.12,11.89,0,14.05,0,14.74,0,20.24s0,6.19.12,8.34C.46,35.94,4.54,40,11.89,40.36c2.16.1,2.85.12,8.35.12s6.19,0,8.34-.12C35.93,40,40,35.94,40.36,28.58c.1-2.15.12-2.84.12-8.34s0-6.19-.12-8.34C40,4.55,35.94.46,28.59.12,26.43,0,25.74,0,20.24,0Zm0,9.85A10.39,10.39,0,1,0,30.63,20.24,10.39,10.39,0,0,0,20.24,9.85Zm0,17.14A6.75,6.75,0,1,1,27,20.24,6.75,6.75,0,0,1,20.24,27ZM31,7a2.43,2.43,0,1,0,2.43,2.43A2.43,2.43,0,0,0,31,7Z"/></g></g></svg>