<svg xmlns="http://www.w3.org/2000/svg" viewBox="0 0 194.88 225"><defs><style>.cls-1{fill:#fff;}</style></defs><title>Asset 20</title><g id="Layer_2" data-name="Layer 2"><g id="Layer_2-2" data-name="Layer 2"><path class="cls-1" d="M106.28,9.77h9a10.52,10.52,0,0,1,1.27.11A26.44,26.44,0,0,0,106.28,3.3Z"/><path class="cls-1" d="M115.27,41.52h-8.81a16.07,16.07,0,0,1-18,0H81.34a11.06,11.06,0,0,1-9.11-4.8,26.56,26.56,0,0,0,49.29,2.84A11,11,0,0,1,115.27,41.52Z"/><path class="cls-1" d="M81.34,9.77h9v-7a26.49,26.49,0,0,0-12.43,7.57A11,11,0,0,1,81.34,9.77Z"/><path class="cls-1" d="M134.47,85a5.22,5.22,0,0,0-5.32-5.32H118.52A5.22,5.22,0,0,0,113.21,85L113,149a5.22,5.22,0,0,0,5.32,5.31h0a5.21,5.21,0,0,0,5.31-5.31l.18-58.65h5.31A5.22,5.22,0,0,0,134.47,85Z"/><path class="cls-1" d="M65.55,67.32a5.22,5.22,0,0,0,5.32,5.32H180.71a3.54,3.54,0,0,1,0,7.08H170.08a5.32,5.32,0,1,0,0,10.63h10.63a14.17,14.17,0,0,0,0-28.34H70.87A5.22,5.22,0,0,0,65.55,67.32Z"/><path class="cls-1" d="M14.17,72.64H24.8A5.32,5.32,0,1,0,24.8,62H14.17a14.17,14.17,0,0,0,0,28.34h56.7v12.41a5.32,5.32,0,0,0,10.63,0V85a5.23,5.23,0,0,0-5.32-5.32h-62a3.54,3.54,0,0,1,0-7.08Z"/><path class="cls-1" d="M86.81,225a16.14,16.14,0,0,0,10.63-4.07A16.18,16.18,0,0,0,108.07,225a15.81,15.81,0,0,0,15.77-15.77V191.52a5.32,5.32,0,1,0-10.63,0v17.71a5.14,5.14,0,0,1-10.28,0h0V135.35a5.32,5.32,0,0,0-10.63,0v73.88a5.32,5.32,0,1,1-10.63,0l-.17-63.6a5.23,5.23,0,0,0-5.32-5.32h0a5.33,5.33,0,0,0-5.31,5.32v63.43A15.87,15.87,0,0,0,86.81,225Z"/><circle class="cls-1" cx="47.66" cy="67.5" r="7.09"/><circle class="cls-1" cx="76" cy="124.19" r="7.09"/><circle class="cls-1" cx="118.52" cy="170.26" r="7.09"/><circle class="cls-1" cx="150.41" cy="85.22" r="7.09"/><path class="cls-1" d="M73.81,30.43A7.55,7.55,0,0,0,81.34,38h33.93a7.54,7.54,0,0,0,7.55-7.55V30h2.12V21.3h-2.12v-.44a7.54,7.54,0,0,0-7.55-7.55H102.73V.5a20,20,0,0,0-8.82,0V13.31H81.34a7.55,7.55,0,0,0-7.53,7.55v.44h-2.1V30h2.1Zm4-9.57a3.56,3.56,0,0,1,3.54-3.55h33.93a3.56,3.56,0,0,1,3.55,3.55v9.57A3.56,3.56,0,0,1,115.28,34H81.35a3.56,3.56,0,0,1-3.54-3.56Z"/><path class="cls-1" d="M86.76,29.48a4.68,4.68,0,1,0-4.66-4.66A4.67,4.67,0,0,0,86.76,29.48Z"/><path class="cls-1" d="M108.33,29.48a4.68,4.68,0,1,0-4.66-4.66A4.67,4.67,0,0,0,108.33,29.48Z"/></g></g></svg>