<svg xmlns="http://www.w3.org/2000/svg" viewBox="0 0 673.47 155.38"><defs><style>.cls-1{fill:#fff;}</style></defs><title>Asset 15</title><g id="Layer_2" data-name="Layer 2"><g id="Layer_2-2" data-name="Layer 2"><path class="cls-1" d="M170.12,81.49h-5.45v33.34H143.18V0h21.49V65.15h4.78l19.07-30H213.4L187.49,71.48l29.44,43.35H192.2Z"/><path class="cls-1" d="M246.52,16.12H225V0h21.49Zm0,98.71H225V35.19h21.49Z"/><path class="cls-1" d="M283.85,35.19l.95,11.41a29.17,29.17,0,0,1,9.79-9.5,25.4,25.4,0,0,1,13-3.39q12.08,0,18.85,7.77T333.24,66v48.8H311.67V66.1q0-8.53-3-12.11t-8.94-3.57a18.68,18.68,0,0,0-8.43,1.81,16.43,16.43,0,0,0-6,5v57.63h-21.5V35.19Z"/><path class="cls-1" d="M383.81,116.38q-17.82,0-27.83-10.93T346,77.29V74.35q0-17.89,9.72-29.3t26.72-11.34q16.05,0,24.62,9.83T415.61,70V81.12H368.13l-.22.44q.51,8.18,5,13.25t13.21,5.08a44.34,44.34,0,0,0,12.26-1.47,50,50,0,0,0,10.41-4.49l5.82,13.25a40,40,0,0,1-13,6.55A57.29,57.29,0,0,1,383.81,116.38Zm-1.4-66.1q-6.48,0-10,4.45T368.2,66.54l.15.37h26.21V65.29q0-7-2.87-11T382.41,50.28Z"/><path class="cls-1" d="M474,77.29H430.63V60.73H474Z"/><path class="cls-1" d="M531.91,85.76l1.33,5.89h.44L534.93,86,558.27,7.66h22.67L544.5,114.83H522.42L486.05,7.66h22.68Z"/><path class="cls-1" d="M612.81,72v42.84H591.32V7.66h37.1q18.33,0,28.67,8.35t10.34,23.3a23.5,23.5,0,0,1-4.38,14.24,30.5,30.5,0,0,1-12.77,9.68q9.5,2.81,13.65,9.35t4.16,16.19v7.88a39.07,39.07,0,0,0,1.22,9.39,12.88,12.88,0,0,0,4.16,7.25v1.54H651.31c-2-1.57-3.23-4.17-3.79-7.8a67.86,67.86,0,0,1-.85-10.53V88.92q0-8-4.38-12.48T629.89,72Zm0-16.56h15.24c6,0,10.53-1.28,13.47-3.83s4.42-6.33,4.42-11.34-1.49-8.8-4.46-11.7-7.32-4.34-13.06-4.34H612.81Z"/><path class="cls-1" d="M54.62,88.32,35.07,115.15a3.86,3.86,0,0,1-5.34.88l-13.14-9.24a3.86,3.86,0,0,1-.95-5.35L35.34,72.9a3.86,3.86,0,0,0-2-5.86L2.65,56.84A3.86,3.86,0,0,1,.18,52L5.05,36.68a3.86,3.86,0,0,1,4.89-2.5L42.32,44.84a3.86,3.86,0,0,0,5.07-3.64l.27-33.6a3.86,3.86,0,0,1,3.86-3.83H67.44a3.84,3.84,0,0,1,3.85,3.75l1,35.09a3.86,3.86,0,0,0,5.1,3.55L108,35.77a3.86,3.86,0,0,1,4.93,2.51l4.79,15.45a3.86,3.86,0,0,1-2.45,4.8L83.74,69.22a3.86,3.86,0,0,0-1.95,5.83l18.68,27.34a3.86,3.86,0,0,1-.9,5.28l-13.12,9.66a3.86,3.86,0,0,1-5.43-.86L60.87,88.35A3.86,3.86,0,0,0,54.62,88.32Z"/><path class="cls-1" d="M147.38,136.08v3h2.55v1.05h-2.55v7.58a2.43,2.43,0,0,0,.41,1.61,1.37,1.37,0,0,0,1.1.48,3.44,3.44,0,0,0,.46,0,3.16,3.16,0,0,0,.52-.09l.19,1a3.2,3.2,0,0,1-.64.21,3.82,3.82,0,0,1-.75.08,2.42,2.42,0,0,1-1.91-.77,3.64,3.64,0,0,1-.68-2.45v-7.58h-2v-1.05h2v-3Z"/><path class="cls-1" d="M178.86,150.91a4.64,4.64,0,0,1-3.66-1.6,6,6,0,0,1-1.41-4.09v-.6a6.12,6.12,0,0,1,1.42-4.14,4.5,4.5,0,0,1,3.53-1.63A4.07,4.07,0,0,1,182,140.2a5.48,5.48,0,0,1,1.16,3.66v1h-8.09v.36a5.24,5.24,0,0,0,1,3.29,3.3,3.3,0,0,0,2.78,1.31,5.21,5.21,0,0,0,2-.35,4.22,4.22,0,0,0,1.48-.94l.55.89a4.75,4.75,0,0,1-1.61,1.06A5.89,5.89,0,0,1,178.86,150.91Zm-.12-11A3.16,3.16,0,0,0,176.3,141a4.59,4.59,0,0,0-1.11,2.7l0,.07h6.66v-.27a3.93,3.93,0,0,0-.81-2.55A2.83,2.83,0,0,0,178.74,139.94Z"/><path class="cls-1" d="M212,149.82a3.48,3.48,0,0,0,2.19-.73,2.41,2.41,0,0,0,.95-2h1.15l0,.07a3.22,3.22,0,0,1-1.27,2.69,4.58,4.58,0,0,1-3,1.09,4.37,4.37,0,0,1-3.61-1.63,6.5,6.5,0,0,1-1.3-4.18v-.45a6.53,6.53,0,0,1,1.29-4.17,4.33,4.33,0,0,1,3.61-1.63,4.48,4.48,0,0,1,3.12,1.12,3.69,3.69,0,0,1,1.2,3l0,.06h-1.15a2.91,2.91,0,0,0-.91-2.23,3.23,3.23,0,0,0-2.24-.83,3.05,3.05,0,0,0-2.72,1.34,6,6,0,0,0-.89,3.37v.45a6,6,0,0,0,.89,3.39A3.07,3.07,0,0,0,212,149.82Z"/><path class="cls-1" d="M242.38,141a4.24,4.24,0,0,1,1.55-1.62,4.32,4.32,0,0,1,2.25-.57A3.53,3.53,0,0,1,249,140a5.31,5.31,0,0,1,1,3.54v7.16H248.7V143.5a4,4,0,0,0-.75-2.72,2.67,2.67,0,0,0-2.06-.82,3.62,3.62,0,0,0-2.23.66,3.8,3.8,0,0,0-1.28,1.77v8.29h-1.29V133.93h1.29Z"/><path class="cls-1" d="M276.48,139.06l.11,2a4.26,4.26,0,0,1,1.52-1.65,4.18,4.18,0,0,1,2.24-.58,3.58,3.58,0,0,1,2.88,1.15,5.45,5.45,0,0,1,1,3.6v7.08h-1.29v-7.07a4.24,4.24,0,0,0-.74-2.82,2.73,2.73,0,0,0-2.13-.83,3.43,3.43,0,0,0-2.21.68,3.75,3.75,0,0,0-1.22,1.81v8.23h-1.29V139.06Z"/><path class="cls-1" d="M308.86,144.7a6.23,6.23,0,0,1,1.41-4.21,5.07,5.07,0,0,1,7.47,0,6.27,6.27,0,0,1,1.4,4.21v.35a6.23,6.23,0,0,1-1.4,4.22,4.65,4.65,0,0,1-3.72,1.64,4.71,4.71,0,0,1-3.75-1.64,6.24,6.24,0,0,1-1.41-4.22Zm1.29.35a5.55,5.55,0,0,0,1,3.4,3.62,3.62,0,0,0,5.67,0,5.56,5.56,0,0,0,1-3.4v-.35a5.47,5.47,0,0,0-1-3.37,3.58,3.58,0,0,0-5.66,0,5.53,5.53,0,0,0-1,3.37Z"/><path class="cls-1" d="M345.27,150.68H344V133.93h1.28Z"/><path class="cls-1" d="M370.1,144.7a6.23,6.23,0,0,1,1.41-4.21,5.07,5.07,0,0,1,7.47,0,6.22,6.22,0,0,1,1.4,4.21v.35a6.23,6.23,0,0,1-1.4,4.22,4.65,4.65,0,0,1-3.72,1.64,4.71,4.71,0,0,1-3.75-1.64,6.24,6.24,0,0,1-1.41-4.22Zm1.29.35a5.55,5.55,0,0,0,1,3.4,3.62,3.62,0,0,0,5.67,0,5.56,5.56,0,0,0,1-3.4v-.35a5.53,5.53,0,0,0-1-3.37,3.59,3.59,0,0,0-5.67,0,5.53,5.53,0,0,0-1,3.37Z"/><path class="cls-1" d="M404.61,145a7.59,7.59,0,0,1,1.17-4.45,3.79,3.79,0,0,1,3.29-1.67,4.1,4.1,0,0,1,2.14.53,4.2,4.2,0,0,1,1.51,1.51l.18-1.83h1v11.69a4.56,4.56,0,0,1-1.22,3.42,4.71,4.71,0,0,1-3.47,1.21,8.29,8.29,0,0,1-1.79-.21,6.6,6.6,0,0,1-1.66-.56l.25-1.08a6.56,6.56,0,0,0,1.49.52,7.55,7.55,0,0,0,1.69.18,3.42,3.42,0,0,0,2.56-.88,3.6,3.6,0,0,0,.85-2.6V149.1a4,4,0,0,1-1.49,1.34,4.59,4.59,0,0,1-2.11.47,3.87,3.87,0,0,1-3.26-1.56,6.76,6.76,0,0,1-1.17-4.16Zm1.29.22a5.87,5.87,0,0,0,.85,3.36,2.86,2.86,0,0,0,2.54,1.24,3.64,3.64,0,0,0,2.06-.55,3.69,3.69,0,0,0,1.29-1.52v-5.54a4,4,0,0,0-1.25-1.6,3.34,3.34,0,0,0-2.08-.62,2.8,2.8,0,0,0-2.55,1.4,6.72,6.72,0,0,0-.86,3.61Z"/><path class="cls-1" d="M442.61,147.54l.41,1.38h.07l3.51-9.86H448L443,152.54a6.57,6.57,0,0,1-1.17,2,2.65,2.65,0,0,1-2.11.83,4,4,0,0,1-.54,0,3.17,3.17,0,0,1-.48-.1l.15-1.08.42,0,.41,0a1.65,1.65,0,0,0,1.34-.6,5.06,5.06,0,0,0,.86-1.53l.62-1.57L438,139.06h1.42Z"/><path class="cls-1" d="M506.39,147.71a1.87,1.87,0,0,0-.67-1.43,5.63,5.63,0,0,0-2.42-1,7.94,7.94,0,0,1-3.07-1.18,2.44,2.44,0,0,1-1-2.09,2.82,2.82,0,0,1,1.12-2.25,4.51,4.51,0,0,1,3-.92,4.61,4.61,0,0,1,3.1,1,2.89,2.89,0,0,1,1.11,2.42l0,.06h-1.19a2.14,2.14,0,0,0-.83-1.66,3.8,3.8,0,0,0-4.28-.1,1.86,1.86,0,0,0-.71,1.43,1.69,1.69,0,0,0,.61,1.32,6,6,0,0,0,2.42.92,8,8,0,0,1,3.09,1.25,2.6,2.6,0,0,1,1.05,2.17,2.82,2.82,0,0,1-1.18,2.36,4.92,4.92,0,0,1-3.11.91,5,5,0,0,1-3.32-1,2.87,2.87,0,0,1-1.15-2.41l0-.06h1.18a2.11,2.11,0,0,0,1,1.82,4.29,4.29,0,0,0,2.24.57,3.47,3.47,0,0,0,2.2-.62A1.83,1.83,0,0,0,506.39,147.71Z"/><path class="cls-1" d="M534.07,150.68h-1.28V133.93h1.28Z"/><path class="cls-1" d="M558.91,144.7a6.23,6.23,0,0,1,1.41-4.21,5.06,5.06,0,0,1,7.46,0,6.23,6.23,0,0,1,1.41,4.21v.35a6.28,6.28,0,0,1-1.4,4.22,5.07,5.07,0,0,1-7.47,0,6.24,6.24,0,0,1-1.41-4.22Zm1.29.35a5.55,5.55,0,0,0,1,3.4,3.62,3.62,0,0,0,5.67,0,5.55,5.55,0,0,0,1-3.4v-.35a5.47,5.47,0,0,0-1-3.37,3.33,3.33,0,0,0-2.84-1.39,3.3,3.3,0,0,0-2.82,1.39,5.53,5.53,0,0,0-1,3.37Z"/><path class="cls-1" d="M593.41,145a7.59,7.59,0,0,1,1.18-4.45,3.77,3.77,0,0,1,3.28-1.67,4.16,4.16,0,0,1,2.15.53,4.1,4.1,0,0,1,1.5,1.51l.19-1.83h1v11.69a4.56,4.56,0,0,1-1.23,3.42,4.7,4.7,0,0,1-3.47,1.21,8.27,8.27,0,0,1-1.78-.21,6.46,6.46,0,0,1-1.66-.56l.24-1.08a6.74,6.74,0,0,0,1.49.52,7.62,7.62,0,0,0,1.69.18,3.45,3.45,0,0,0,2.57-.88,3.6,3.6,0,0,0,.85-2.6V149.1a4.09,4.09,0,0,1-1.5,1.34,4.57,4.57,0,0,1-2.1.47,3.85,3.85,0,0,1-3.26-1.56,6.76,6.76,0,0,1-1.18-4.16Zm1.29.22a5.87,5.87,0,0,0,.85,3.36,2.87,2.87,0,0,0,2.55,1.24,3.61,3.61,0,0,0,2-.55,3.72,3.72,0,0,0,1.3-1.52v-5.54a4.07,4.07,0,0,0-1.25-1.6,3.36,3.36,0,0,0-2.08-.62,2.82,2.82,0,0,0-2.56,1.4,6.82,6.82,0,0,0-.86,3.61Z"/><path class="cls-1" d="M635.48,150.68q-.12-.62-.18-1.05a6.58,6.58,0,0,1-.06-.9,4.69,4.69,0,0,1-1.68,1.56,5,5,0,0,1-2.5.62,3.62,3.62,0,0,1-2.64-.91,3.25,3.25,0,0,1-.94-2.46,3,3,0,0,1,1.36-2.53,6,6,0,0,1,3.55-1h2.85V142.6a2.47,2.47,0,0,0-.79-1.95,3.23,3.23,0,0,0-2.23-.71,3.32,3.32,0,0,0-2.13.65,2,2,0,0,0-.81,1.62h-1.19l0-.07a2.73,2.73,0,0,1,1.12-2.3,4.67,4.67,0,0,1,3.1-1,4.61,4.61,0,0,1,3.07,1,3.48,3.48,0,0,1,1.16,2.81v5.71a9.17,9.17,0,0,0,.07,1.19,7.55,7.55,0,0,0,.23,1.15Zm-4.28-.91a4.6,4.6,0,0,0,2.57-.7,3.52,3.52,0,0,0,1.47-1.81V145h-2.86a4.25,4.25,0,0,0-2.59.75,2.19,2.19,0,0,0-1,1.8,2,2,0,0,0,.65,1.59A2.51,2.51,0,0,0,631.2,149.77Z"/><path class="cls-1" d="M663.09,139.06l.12,2a4,4,0,0,1,3.75-2.23,3.57,3.57,0,0,1,2.88,1.15,5.45,5.45,0,0,1,1,3.6v7.08h-1.29v-7.07a4.24,4.24,0,0,0-.74-2.82,2.73,2.73,0,0,0-2.13-.83,3.43,3.43,0,0,0-2.21.68,3.75,3.75,0,0,0-1.22,1.81v8.23H662V139.06Z"/></g></g></svg>