<svg xmlns="http://www.w3.org/2000/svg" viewBox="0 0 262.09 262.09"><defs><style>.cls-1{fill:none;stroke:#fff;stroke-miterlimit:10;stroke-width:3px;}.cls-2{fill:#fff;}</style></defs><title>Asset 10</title><g id="Layer_2" data-name="Layer 2"><g id="Layer_2-2" data-name="Layer 2"><rect class="cls-1" x="37.35" y="37.35" width="187.38" height="187.38" rx="7.13" transform="translate(131.05 -54.28) rotate(45)"/><path class="cls-2" d="M147.19,167.54a3,3,0,0,1-.59-.06,2.89,2.89,0,0,1-2.25-3.41c1.23-6,6.51-44.3,6.94-47.46,0-1.7-.4-3.78-3.59-6.81L118.12,86.51A2.89,2.89,0,1,1,121.7,82l29.68,23.37.19.17c4.88,4.57,5.5,8.44,5.5,11.29a2.56,2.56,0,0,1,0,.39c-.23,1.7-5.72,41.66-7,48A2.89,2.89,0,0,1,147.19,167.54Z"/><path class="cls-2" d="M160.66,185.43c-3.56,0-8-.34-13.26-.77a83,83,0,0,0-10.08-.53c-4,.38-6.36-1.12-7.59-2.44-2.87-3.08-2.34-7.66-2.21-8.49l1-8.5a48.07,48.07,0,0,0-.93-15.29s0-.07,0-.1c-2.27-10.51.1-21.87,1.59-27.38-7.44-1.18-25-4.94-34.74-15.06a2.89,2.89,0,1,1,4.17-4c10.85,11.29,34.37,13.76,34.6,13.79a2.89,2.89,0,0,1,2.44,3.83c-.05.14-5.13,14.94-2.42,27.56a53.64,53.64,0,0,1,1.05,17.33l-1,8.56a.78.78,0,0,1,0,.14c-.12.8-.11,2.8.73,3.69a3.39,3.39,0,0,0,2.81.62,79.62,79.62,0,0,1,11.11.52c6.21.51,14.73,1.23,17.59.31.83-.26,1-.7,1.05-1a2.4,2.4,0,0,0-1-2.19,5,5,0,0,0-2.2-.69,18,18,0,0,1-4-1.1A79.75,79.75,0,0,1,145.54,167a2.89,2.89,0,1,1,3.29-4.75,75.66,75.66,0,0,0,12.66,6.58,13,13,0,0,0,2.81.75,10.31,10.31,0,0,1,4.49,1.64,8.12,8.12,0,0,1,3.44,7.79,7,7,0,0,1-5,5.69A22.78,22.78,0,0,1,160.66,185.43Z"/><path class="cls-2" d="M174.85,132.72a2.85,2.85,0,0,1-2-.85l-6.32-6.32a2.89,2.89,0,0,1,4.09-4.08l6.31,6.32a2.88,2.88,0,0,1,0,4.08A2.85,2.85,0,0,1,174.85,132.72Z"/><path class="cls-2" d="M168.53,106.69a2.85,2.85,0,0,1-2-.85,2.88,2.88,0,0,1,0-4.08l6.32-6.32a2.89,2.89,0,0,1,4.08,4.09l-6.31,6.31A2.88,2.88,0,0,1,168.53,106.69Z"/><path class="cls-2" d="M182.83,116.21H169.35a2.88,2.88,0,1,1,0-5.76h13.48a2.88,2.88,0,1,1,0,5.76Z"/></g></g></svg>