<svg xmlns="http://www.w3.org/2000/svg" viewBox="0 0 262.09 262.09"><defs><style>.cls-1{fill:none;stroke:#fff;stroke-miterlimit:10;stroke-width:3px;}.cls-2{fill:#fff;}</style></defs><title>Asset 11</title><g id="Layer_2" data-name="Layer 2"><g id="Layer_2-2" data-name="Layer 2"><rect class="cls-1" x="37.35" y="37.35" width="187.38" height="187.38" rx="7.13" transform="translate(131.05 -54.28) rotate(45)"/><path class="cls-2" d="M89.11,173.85A2.88,2.88,0,0,1,86.23,171V107.25c0-9,8.17-12.31,12.66-12.83l12.12-3a2.67,2.67,0,0,1,.48-.08,5,5,0,0,0,4.66-5.35V81.4a2.89,2.89,0,1,1,5.77,0v4.54A10.69,10.69,0,0,1,112.22,97l-12.07,3a2.53,2.53,0,0,1-.48.07c-.77.09-7.68,1-7.68,7.11V171A2.88,2.88,0,0,1,89.11,173.85Z"/><path class="cls-2" d="M101.41,174.61a2.89,2.89,0,0,1-2.89-2.89c0-4.42,1.29-8.91,2.43-12.88l.2-.69c.21-.74.37-1.48.59-2.21a32.19,32.19,0,0,0,1.78-9.23V117a3,3,0,0,1,6,0v29.68c0,3.94-1.14,7.48-2.17,10.9-.21.7-.46,1.41-.67,2.13l-.21.7c-1.09,3.77-2.21,7.67-2.21,11.28A2.9,2.9,0,0,1,101.41,174.61Z"/><path class="cls-2" d="M172,142.07a2.89,2.89,0,0,1-2.89-2.89V107.25c0-6.3-6.9-7.08-7.19-7.11a1.87,1.87,0,0,1-.4-.07l-12.34-3c-3.59-.37-10-3.11-10-11.08V81.4a2.88,2.88,0,1,1,5.76,0v4.54a5.18,5.18,0,0,0,5,5.35,3.7,3.7,0,0,1,.48.07l12.33,3.06c4.33.52,12.17,3.82,12.17,12.83v31.93A2.88,2.88,0,0,1,172,142.07Z"/><path class="cls-2" d="M160.33,157.39c-.28-1-.6-2-.92-3a28.33,28.33,0,0,1-1.8-8.39v-30a2.88,2.88,0,1,0-5.76,0v29.55a1.83,1.83,0,0,0,0,.33,33.12,33.12,0,0,0,2.08,10.22c.3.93.6,1.87.87,2.81,1.07,3.75,2.29,8,2.29,11.94a2.89,2.89,0,0,0,5.78,0C162.85,166.17,161.45,161.3,160.33,157.39Z"/><path class="cls-2" d="M130.57,160.37a2.88,2.88,0,0,1-2.88-2.89v-7.7a2.88,2.88,0,1,1,5.76,0v7.7A2.88,2.88,0,0,1,130.57,160.37Z"/><path class="cls-2" d="M130.57,143a2.87,2.87,0,0,1-2.88-2.88V104.51a2.88,2.88,0,1,1,5.76,0v35.64A2.88,2.88,0,0,1,130.57,143Z"/><path class="cls-2" d="M179.82,182.63a2.92,2.92,0,0,1-2-.84l-6.31-6.32a2.89,2.89,0,0,1,4.08-4.09l6.32,6.32a2.89,2.89,0,0,1-2,4.93Z"/><path class="cls-2" d="M173.5,156.61a2.9,2.9,0,0,1-2-4.94l6.31-6.31a2.89,2.89,0,0,1,4.09,4.08l-6.32,6.32A2.89,2.89,0,0,1,173.5,156.61Z"/><path class="cls-2" d="M187.44,166.2H173a2.88,2.88,0,1,1,0-5.76h14.44a2.88,2.88,0,1,1,0,5.76Z"/></g></g></svg>