<svg xmlns="http://www.w3.org/2000/svg" viewBox="0 0 161.1 124.5"><defs><style>.cls-1{fill:#0071bc;opacity:0.2;}</style></defs><title>Asset 9</title><g id="Layer_2" data-name="Layer 2"><g id="Layer_2-2" data-name="Layer 2"><path class="cls-1" d="M62.49,0V9.89Q41.27,21,32.09,33.05a42.58,42.58,0,0,0-9.17,26.3q0,8.45,2.41,11.58c1.45,2.26,3.22,3.38,5.31,3.38a27.88,27.88,0,0,0,8.45-1.81,30.35,30.35,0,0,1,9.65-1.81A23.66,23.66,0,0,1,66,78.05a24.49,24.49,0,0,1,7.36,18q0,11.58-8.93,19.9t-22.2,8.33q-16.15,0-29.19-14T0,75.76q0-24.12,16-45T62.49,0Zm87,.72V9.89q-24.36,14-32.09,25.09T109.71,61c0,4.51.89,7.88,2.65,10.14s3.62,3.37,5.55,3.37a26,26,0,0,0,8-1.93,31,31,0,0,1,10.61-1.93,24,24,0,0,1,17.25,7.12A23.38,23.38,0,0,1,161.1,95.3q0,11.83-9.29,20.51T129,124.5q-15.91,0-28.71-13.75T87.51,76.48q0-25.33,16.17-46.2T149.52.72Z"/></g></g></svg>