<svg xmlns="http://www.w3.org/2000/svg" viewBox="0 0 161.1 124.5"><defs><style>.cls-1{fill:#0071bc;opacity:0.2;}</style></defs><title>Asset 8</title><g id="Layer_2" data-name="Layer 2"><g id="Layer_2-2" data-name="Layer 2"><path class="cls-1" d="M98.61,124.5v-9.89q21.24-11.1,30.4-23.17a42.56,42.56,0,0,0,9.17-26.3q0-8.45-2.41-11.58-2.18-3.37-5.31-3.37A28,28,0,0,0,122,52a30.13,30.13,0,0,1-9.66,1.81,23.65,23.65,0,0,1-17.25-7.35,24.49,24.49,0,0,1-7.36-18q0-11.58,8.93-19.9T118.88.24q16.17,0,29.19,14t13,34.5q0,24.12-16,45T98.61,124.5Zm-87-.73v-9.16q24.38-14,32.09-25.1t7.72-26.05q0-6.76-2.65-10.14t-5.55-3.38a26.22,26.22,0,0,0-8,1.93A30.83,30.83,0,0,1,24.61,53.8,24,24,0,0,1,7.36,46.69,23.39,23.39,0,0,1,0,29.19Q0,17.37,9.29,8.69T32.09,0Q48,0,60.8,13.75T73.59,48q0,25.34-16.17,46.21T11.58,123.77Z"/></g></g></svg>