<svg xmlns="http://www.w3.org/2000/svg" viewBox="0 0 262.09 262.09"><defs><style>.cls-1{fill:none;stroke:#fff;stroke-miterlimit:10;stroke-width:3px;}.cls-2{fill:#fff;}</style></defs><title>Asset 7</title><g id="Layer_2" data-name="Layer 2"><g id="Layer_2-2" data-name="Layer 2"><rect class="cls-1" x="37.35" y="37.35" width="187.38" height="187.38" rx="7.13" transform="translate(131.05 -54.28) rotate(45)"/><path class="cls-2" d="M132.79,152.53c-15,0-27.34-17.1-28.28-32.38,0-.68-.05-6.57-.05-6.62a2.89,2.89,0,0,1,5.78,0c0,1.32,0,5.77,0,6.28.75,12.2,11,26.94,22.51,26.94,12,0,22.12-15.1,22.53-27.6,0-.54,0-14.17,0-14.79a2.89,2.89,0,0,1,5.78,0c0,.15,0,14.62,0,15C160.59,134.69,148.12,152.53,132.79,152.53Z"/><path class="cls-2" d="M104.5,125.2c-5.39,0-10.12-5-10.12-10.76S99,103.76,104.5,103.76a2.89,2.89,0,1,1,0,5.77c-2.23,0-4.34,2.39-4.34,4.91s2.11,5,4.34,5a2.89,2.89,0,0,1,0,5.78Z"/><path class="cls-2" d="M139.34,138.06H125.86a2.88,2.88,0,1,1,0-5.76h13.48a2.88,2.88,0,1,1,0,5.76Z"/><path class="cls-2" d="M160.76,124.57a2.89,2.89,0,0,1,0-5.78c2.24,0,4.35-2.39,4.35-4.91s-2.11-5-4.35-5a2.89,2.89,0,1,1,0-5.78c5.4,0,10.13,5,10.13,10.76S166.25,124.57,160.76,124.57Z"/><path class="cls-2" d="M166.41,112a2.87,2.87,0,0,1-1.42-.37,7.21,7.21,0,0,1-1.56-1.35,14.06,14.06,0,0,0-1.77-1.6,2.94,2.94,0,0,0-1.72-.11,3,3,0,0,1-2.87-.09,2.91,2.91,0,0,1-1.43-2.47v-.54L143.76,92.18A72.19,72.19,0,0,1,128,102.11c-2.41,1.13-4.38,2-6.22,2.73A66.89,66.89,0,0,1,98.43,110a2.93,2.93,0,0,1-2.1-.73,2.89,2.89,0,0,1-1-2,50.06,50.06,0,0,1,.4-9.52C97,87,101.54,78.32,108.45,73.27a33,33,0,0,1,19-6.22,28.3,28.3,0,0,1,7,.86,29.11,29.11,0,0,1,9.5,4.15,19.62,19.62,0,0,1,5.35-.73,20.62,20.62,0,0,1,16.41,8.24c5.91,7.9,7.3,20.49,3.36,30.59a2.86,2.86,0,0,1-1.72,1.68A2.9,2.9,0,0,1,166.41,112ZM127.49,72.83a27.06,27.06,0,0,0-15.63,5.11c-7.55,5.52-9.73,15.21-10.35,20.49-.26,2.24-.4,3.95-.43,5.58a59.69,59.69,0,0,0,18.55-4.54c1.72-.68,3.6-1.51,5.9-2.59,10.69-5,16.35-10.75,16.4-10.81a2.87,2.87,0,0,1,2.13-.87,2.92,2.92,0,0,1,2.1,1l14.59,16.28a3.11,3.11,0,0,1,.23.28,8.93,8.93,0,0,1,2.8.59,5.87,5.87,0,0,1,1.16.61c1.53-7.37.12-15.62-3.83-20.89a14.8,14.8,0,0,0-11.78-5.92,14,14,0,0,0-5,.9,2.87,2.87,0,0,1-3.08-.68c-1.38-1.4-4.61-2.9-8.23-3.82A22.06,22.06,0,0,0,127.49,72.83Z"/><path class="cls-2" d="M116.86,119.24a2.89,2.89,0,0,1-.93-5.63l2-.67-1.55-1.17a2.89,2.89,0,0,1,3.48-4.62l10.28,7.76-12.36,4.18A3,3,0,0,1,116.86,119.24Z"/><path class="cls-2" d="M149.06,119.25a2.72,2.72,0,0,1-.84-.13l-12.32-3.77,10-8.11a2.89,2.89,0,0,1,3.63,4.5L148,113l1.93.6a2.89,2.89,0,0,1-.85,5.65Z"/><path class="cls-2" d="M86,179.87A2.89,2.89,0,0,1,83.14,177c0-7.46,11.12-13.18,12.39-13.8,7.67-3.81,17-4.71,21.67-4.91v-12.6a2.89,2.89,0,1,1,5.77,0v15.44a2.89,2.89,0,0,1-3,2.88c-.13,0-12.74-.19-21.93,4.36-5,2.46-9.17,6.42-9.17,8.63A2.89,2.89,0,0,1,86,179.87Z"/><path class="cls-2" d="M178.89,179.65a2.9,2.9,0,0,1-2.89-2.89c0-2.09-4.14-5.78-9.43-8.4-9.22-4.58-21.27-4.37-21.39-4.37a2.79,2.79,0,0,1-2.1-.82,2.89,2.89,0,0,1-.89-2.06V147.59a2.88,2.88,0,1,1,5.76,0v10.68c4.67.22,13.55,1.13,21.16,4.91,3,1.47,12.66,6.79,12.66,13.58A2.88,2.88,0,0,1,178.89,179.65Z"/><path class="cls-2" d="M101.69,146.63a2.88,2.88,0,0,1-2.88-2.89v-8.67a2.88,2.88,0,1,1,5.76,0v8.67A2.88,2.88,0,0,1,101.69,146.63Z"/><path class="cls-2" d="M88.3,161.12H79.63a2.88,2.88,0,1,1,0-5.76H88.3a2.88,2.88,0,1,1,0,5.76Z"/><path class="cls-2" d="M95.09,153.68a2.88,2.88,0,0,1-2-.85L83.22,143a2.88,2.88,0,1,1,4.08-4.08l9.83,9.83a2.88,2.88,0,0,1,0,4.08A2.85,2.85,0,0,1,95.09,153.68Z"/></g></g></svg>