<svg xmlns="http://www.w3.org/2000/svg" viewBox="0 0 262.09 262.09"><defs><style>.cls-1{fill:none;stroke:#fff;stroke-miterlimit:10;stroke-width:3px;}.cls-2{fill:#fff;}</style></defs><title>Asset 16</title><g id="Layer_2" data-name="Layer 2"><g id="Layer_2-2" data-name="Layer 2"><rect class="cls-1" x="37.35" y="37.35" width="187.38" height="187.38" rx="7.13" transform="translate(131.05 -54.28) rotate(45)"/><path class="cls-2" d="M141.66,191.83H112.72a10.21,10.21,0,0,1-10.2-10.19v-2.89a2.89,2.89,0,0,1,2.89-2.89h1.21a1.71,1.71,0,0,0,1.46-1.47v-.17a13,13,0,0,0-2-5.56h-.16a2.88,2.88,0,0,1-2.69-3.94,10.15,10.15,0,0,1,9.49-6.47h28.94a10.16,10.16,0,0,1,9.89,7.76,2.86,2.86,0,0,1-.58,2.53,12.9,12.9,0,0,0-1.9,5.68v.17a1.61,1.61,0,0,0,.93,1.4,2.88,2.88,0,0,1,1.85,2.7v3.15A10.2,10.2,0,0,1,141.66,191.83ZM108.3,181.42v.22a4.42,4.42,0,0,0,4.42,4.41h28.94a4.42,4.42,0,0,0,4.42-4.41v-1.53a7.43,7.43,0,0,1-2.78-5.72v-.17a19.17,19.17,0,0,1,2.23-7.89,4.4,4.4,0,0,0-3.87-2.3H112.72a4.48,4.48,0,0,0-2.42.71c2.43,2.71,3.56,7.61,3.56,9.48v.17A7.47,7.47,0,0,1,108.3,181.42Z"/><path class="cls-2" d="M106.62,181.64H93.93c-3.61,0-6.23-3-6.23-7.25v-.17c0-.12.26-11.33,6.23-11.33h12.69c5,0,7.24,8.69,7.24,11.33v.17A7.43,7.43,0,0,1,106.62,181.64Zm-11.94-13a15.67,15.67,0,0,0-1.21,5.56v.17a2.2,2.2,0,0,0,.39,1.47h12.76a1.71,1.71,0,0,0,1.46-1.47v-.17a13,13,0,0,0-2-5.56Z"/><path class="cls-2" d="M163,181.64H150.27a6.36,6.36,0,0,1-2.34-.46,7.38,7.38,0,0,1-4.63-6.79v-.17c0-2.29,1.22-6.95,3.22-9.37a4.82,4.82,0,0,1,3.75-2H163c5.37,0,6.5,9.46,6.5,11.33v.17C169.46,178.52,166.67,181.64,163,181.64Zm-12.08-13a13.21,13.21,0,0,0-1.81,5.56v.17a1.61,1.61,0,0,0,.93,1.4.75.75,0,0,0,.27.07H163c.43,0,.72-.78.72-1.47v-.17a14.54,14.54,0,0,0-1.4-5.56Z"/><path class="cls-2" d="M143.61,164H113.28c-5,0-10.76-4.38-10.76-10s5.67-9.65,10.76-9.65h30.33c5.48,0,10.1,4.38,10.1,9.57A10.35,10.35,0,0,1,143.61,164Zm-30.33-13.9c-2.42,0-5,2-5,3.79,0,2,2.7,4.33,5,4.33h30.33a4.65,4.65,0,0,0,4.32-4.25,4.25,4.25,0,0,0-4.32-3.87Z"/><path class="cls-2" d="M141.66,150.13H112.72a10.21,10.21,0,0,1-10.2-10.19v-2.89a2.89,2.89,0,0,1,2.89-2.89h1.21a1.73,1.73,0,0,0,1.46-1.5v-.18a12.88,12.88,0,0,0-2-5.52h-.17a2.89,2.89,0,0,1-2.69-3.95,10.15,10.15,0,0,1,9.49-6.46h28.94a10.16,10.16,0,0,1,9.89,7.75,2.93,2.93,0,0,1-.58,2.55,12.71,12.71,0,0,0-1.9,5.63v.18a1.63,1.63,0,0,0,.94,1.43,2.88,2.88,0,0,1,1.84,2.69v3.16A10.2,10.2,0,0,1,141.66,150.13ZM108.3,139.72v.22a4.42,4.42,0,0,0,4.42,4.41h28.94a4.42,4.42,0,0,0,4.42-4.41V138.4a7.47,7.47,0,0,1-2.78-5.74v-.18a18.86,18.86,0,0,1,2.23-7.85,4.38,4.38,0,0,0-3.87-2.3H112.72a4.45,4.45,0,0,0-2.41.71c2.42,2.7,3.55,7.58,3.55,9.44v.18A7.49,7.49,0,0,1,108.3,139.72Z"/><path class="cls-2" d="M106.62,139.94H93.93c-3.61,0-6.23-3.06-6.23-7.28v-.18c0-.11.26-11.3,6.23-11.3h12.69c5,0,7.24,8.67,7.24,11.3v.18A7.45,7.45,0,0,1,106.62,139.94Zm-12-13a15.71,15.71,0,0,0-1.2,5.52v.18a2.19,2.19,0,0,0,.41,1.5h12.74a1.73,1.73,0,0,0,1.46-1.5v-.18a12.88,12.88,0,0,0-2-5.52Z"/><path class="cls-2" d="M163,139.94H150.27a6.42,6.42,0,0,1-2.35-.46,7.44,7.44,0,0,1-4.62-6.82v-.18c0-2.28,1.23-6.93,3.23-9.33a4.83,4.83,0,0,1,3.74-2H163c5.37,0,6.5,9.45,6.5,11.3v.18C169.46,136.81,166.67,139.94,163,139.94Zm-12.09-13a13.22,13.22,0,0,0-1.8,5.52v.18a1.63,1.63,0,0,0,.94,1.43.77.77,0,0,0,.26.07H163c.41,0,.72-.79.72-1.5v-.18a14.42,14.42,0,0,0-1.4-5.52Z"/><path class="cls-2" d="M141.66,108.43H112.72a10.21,10.21,0,0,1-10.2-10.19V95.35a2.89,2.89,0,0,1,2.89-2.89h1.21a1.77,1.77,0,0,0,1.46-1.54v-.17a12.71,12.71,0,0,0-2-5.49h-.17a2.89,2.89,0,0,1-2.69-4,10.15,10.15,0,0,1,9.49-6.46h28.94a10.17,10.17,0,0,1,9.89,7.75,2.91,2.91,0,0,1-.59,2.55,12.7,12.7,0,0,0-1.89,5.6v.17a1.7,1.7,0,0,0,1,1.47,2.88,2.88,0,0,1,1.83,2.69v3.16A10.2,10.2,0,0,1,141.66,108.43ZM108.3,98v.22a4.42,4.42,0,0,0,4.42,4.41h28.94a4.42,4.42,0,0,0,4.42-4.41V96.69a7.54,7.54,0,0,1-2.78-5.77v-.17a18.74,18.74,0,0,1,2.23-7.83,4.41,4.41,0,0,0-3.87-2.29H112.72a4.45,4.45,0,0,0-2.41.71c2.42,2.69,3.55,7.56,3.55,9.41v.17A7.53,7.53,0,0,1,108.3,98Z"/><path class="cls-2" d="M106.62,98.24H93.93c-3.61,0-6.23-3.08-6.23-7.32v-.17c0-.11.26-11.27,6.23-11.27h12.69c5,0,7.24,8.65,7.24,11.27v.17A7.47,7.47,0,0,1,106.62,98.24Zm-12-13a15.54,15.54,0,0,0-1.2,5.49v.17a2.25,2.25,0,0,0,.42,1.54h12.73a1.77,1.77,0,0,0,1.46-1.54v-.17a12.71,12.71,0,0,0-2-5.49Z"/><path class="cls-2" d="M163,98.24H150.27a6.47,6.47,0,0,1-2.35-.47,7.47,7.47,0,0,1-4.62-6.85v-.17c0-2.28,1.23-6.92,3.23-9.31a4.81,4.81,0,0,1,3.74-2H163c5.37,0,6.5,9.42,6.5,11.27v.17C169.46,95,166.61,98.24,163,98.24Zm-12.09-13a13.05,13.05,0,0,0-1.8,5.49v.17a1.7,1.7,0,0,0,1,1.47.83.83,0,0,0,.25.07H163c.37,0,.72-.75.72-1.54v-.17a14.22,14.22,0,0,0-1.4-5.49Z"/><path class="cls-2" d="M143.61,122.33H113.28c-5.53,0-10.76-4.89-10.76-10.07,0-5.69,5.67-9.61,10.76-9.61h30.33c5.48,0,10.1,4.37,10.1,9.54A10.49,10.49,0,0,1,143.61,122.33Zm-30.33-13.9c-2.42,0-5,1.93-5,3.76,0,2,2.7,4.36,5,4.36h30.33a4.66,4.66,0,0,0,4.32-4.29c0-2-2.06-3.83-4.32-3.83Z"/></g></g></svg>