<svg xmlns="http://www.w3.org/2000/svg" viewBox="0 0 1923.44 839"><defs><style>.cls-1{opacity:0.1;}.cls-2{fill:#0071bc;}</style></defs><title>Asset 18</title><g id="Layer_2" data-name="Layer 2"><g id="Layer_2-2" data-name="Layer 2"><g class="cls-1"><path class="cls-2" d="M664.56,191.52a95.76,95.76,0,1,1,95.76-95.76A95.87,95.87,0,0,1,664.56,191.52Zm0-151.83a56.07,56.07,0,1,0,56.07,56.07A56.13,56.13,0,0,0,664.56,39.69Z"/><path class="cls-2" d="M696.55,812.6H693.7c-34.45,0-60.19-34.79-60.19-65.55,0-.34,0-.86,0-1.2l5.88-114.93L573.6,573.7a19.86,19.86,0,0,1,26.1-29.94l73.07,63.5a19.84,19.84,0,0,1,6.77,16l-6.33,124.28c.25,11.58,11.21,25.48,20.49,25.48h2.85c9.21,0,19.71-14,19.71-25.9,0-.28,0-.77,0-1.05l6.35-149.39c-.26-4.08-6.21-17.24-17.71-30L609.31,464a19.85,19.85,0,1,1,29-27.1l95.86,102.84c4.91,5.47,28.13,32.56,28.13,57,0,.28,0,.56,0,.84L756,747.51C755.69,778.16,730.37,812.6,696.55,812.6Z"/><path class="cls-2" d="M519.84,835.74a49.21,49.21,0,0,1-5.12-.27l-2.84-.29c-34.24-3.49-56.38-40.11-53.29-70.51l32-274.14a19.84,19.84,0,1,1,39.42,4.6L498,769c-1.15,11.36,8.36,25.76,17.89,26.73l2.84.29c9.21.94,20.93-11,22.15-22.93l36.21-327.83a19.84,19.84,0,1,1,39.44,4.36L580.39,777.26C577.45,806,551.39,835.73,519.84,835.74Z"/><path class="cls-2" d="M1844,825.09c-11,0-20.74-8.89-20.74-19.85V467.48H577.42a19.8,19.8,0,1,1,0-39.6H1844.06c11,0,20.72,9.18,20.72,20.14V805.24C1864.78,816.2,1855,825.09,1844,825.09Z"/><path class="cls-2" d="M80,825.09a19.81,19.81,0,0,1-19.8-19.85V448c0-11,8.19-20.14,19.15-20.14H472.53a19.8,19.8,0,1,1,0,39.6H99.83V805.24A19.81,19.81,0,0,1,80,825.09Z"/><path class="cls-2" d="M537.87,525.3a55.28,55.28,0,0,1-26.57-7.09,70.83,70.83,0,0,1-29.87-32.68L433.24,378c-6.52-14.59-11.48-33.58,1.22-63.91a20.08,20.08,0,0,1,1.8-3.36l64.26-96.24a20.25,20.25,0,0,1,1.76-2.27l7-7.74c.19-.21.39-.42.59-.62A93,93,0,0,1,668.75,279L653.64,418.39a91.92,91.92,0,0,1-13.85,39.68,19.84,19.84,0,0,1-33.51-21.26,52.86,52.86,0,0,0,7.91-22.71l15.1-139.38a53.37,53.37,0,0,0-90.86-43.35l-5.7,6.32-62.35,93.37c-6.87,17.36-3.57,24.73-.91,30.69L517.65,469.3a30.76,30.76,0,0,0,12.69,14.08c4.38,2.4,8.34,2.84,11.79,1.29l2.62-1.17c4.5-2,8.86-7.35,11.38-13.92s2.82-13.41.81-17.89L514,355.85a19.87,19.87,0,0,1,2.7-20.61l40.94-50.47a19.84,19.84,0,0,1,30.82,25l-33.24,41,37.94,84.71c6.35,14.17,6.35,31.78,0,48.31s-18.07,29.61-32.23,36l-2.6,1.16A49.78,49.78,0,0,1,537.87,525.3Z"/><path class="cls-2" d="M132.31,839H19.85a19.8,19.8,0,1,1,0-39.6H132.31a19.8,19.8,0,1,1,0,39.6Z"/><path class="cls-2" d="M1903.6,839H1791.14a19.8,19.8,0,1,1,0-39.6H1903.6a19.8,19.8,0,1,1,0,39.6Z"/></g></g></g></svg>